<svg width="96" height="96" viewBox="0 0 96 96" fill="none" xmlns="http://www.w3.org/2000/svg">
<path d="M55.7581 24.8989C55.6072 24.8998 55.286 24.9294 55.1112 24.9927L54.7612 25.1427L55.6268 28.7365L43.1458 28.7646C42.9022 28.7651 42.6571 28.7632 42.4114 28.7615C41.9202 28.7581 41.425 28.751 40.927 28.7396C40.1978 28.7229 39.4601 28.6983 38.7208 28.6677C38.6813 28.6661 38.6417 28.6632 38.6021 28.6615C37.1089 28.5985 35.6014 28.5123 34.099 28.4177C32.0664 28.2895 30.047 28.147 28.0866 28.0302C26.6338 27.9437 25.2134 27.8723 23.8491 27.8302C22.9122 27.8014 22.0027 27.7846 21.1241 27.7896C20.6925 27.7921 20.2673 27.7989 19.8522 27.8115C19.4371 27.824 19.0142 27.847 18.5866 27.8771C18.3728 27.8922 18.1588 27.9081 17.9429 27.9271C17.296 27.9839 16.6384 28.0592 15.9835 28.1459C15.9824 28.146 15.9813 28.1458 15.9803 28.1459C15.5431 28.2037 15.1085 28.2684 14.6741 28.3365C14.2397 28.4045 13.8068 28.4763 13.3804 28.5521C12.9551 28.6278 12.5334 28.7086 12.121 28.7896C12.12 28.7898 12.1189 28.7894 12.1179 28.7896C11.9113 28.8302 11.7109 28.87 11.5085 28.9115C10.9024 29.0356 10.3151 29.1631 9.75854 29.2896C9.75753 29.2898 9.75644 29.2894 9.75543 29.2896C9.38378 29.3741 9.0267 29.4571 8.68352 29.5396C7.99714 29.7044 7.37202 29.8631 6.83042 30.0052C6.01806 30.2185 5.39222 30.3979 5.02102 30.5052C4.77366 30.5768 4.63977 30.6177 4.63977 30.6177L3.27107 30.9927C3.18083 31.0176 3.09326 31.062 3.00857 31.124C2.9798 31.145 2.95234 31.1676 2.9242 31.1927C2.81424 31.2907 2.7091 31.4198 2.60858 31.5771C2.60812 31.5778 2.60904 31.5795 2.60858 31.5802C2.55854 31.6587 2.50633 31.7443 2.45858 31.8365C2.45816 31.8373 2.459 31.8388 2.45858 31.8396C2.41082 31.932 2.36347 32.031 2.31796 32.1365C2.31759 32.1374 2.31833 32.1387 2.31796 32.1396C1.95126 32.9905 1.65596 34.2527 1.42422 35.7615C1.42407 35.7625 1.42437 35.7636 1.42422 35.7646C1.42063 35.788 1.41841 35.8129 1.41485 35.8365C1.36438 36.1696 1.31564 36.5163 1.2711 36.8709C1.26805 36.8951 1.26474 36.9184 1.26172 36.9428C1.21156 37.3471 1.16705 37.763 1.12422 38.1897C1.12412 38.1907 1.12432 38.1918 1.12422 38.1928C1.10287 38.4056 1.08131 38.6223 1.06172 38.8397C1.06163 38.8407 1.06181 38.8417 1.06172 38.8428C1.04214 39.0602 1.02332 39.2777 1.00547 39.499C1.00539 39.5 1.00556 39.5011 1.00547 39.5022C0.969698 39.9459 0.937656 40.3967 0.908599 40.8522C0.908533 40.8532 0.908664 40.8542 0.908599 40.8553C0.821339 42.2237 0.762639 43.6342 0.730479 45.0115C0.730454 45.0125 0.730503 45.0135 0.730479 45.0146C0.709036 45.9335 0.699219 46.8359 0.699219 47.7053C0.699219 47.8021 0.701974 47.9016 0.702344 47.999C0.701974 48.0965 0.699219 48.196 0.699219 48.2928C0.699219 49.1621 0.709035 50.0645 0.730469 50.9834C0.730493 50.9844 0.730444 50.9855 0.730469 50.9865C0.762634 52.3639 0.821333 53.7743 0.908589 55.1427C0.908654 55.1437 0.908523 55.1448 0.908589 55.1458C0.937646 55.6013 0.969688 56.0521 1.00546 56.4958C1.00555 56.4969 1.00538 56.4979 1.00546 56.4989C1.02331 56.7203 1.04213 56.9378 1.06171 57.1552C1.0618 57.1562 1.06162 57.1573 1.06171 57.1583C1.0813 57.3757 1.10286 57.5924 1.12421 57.8052C1.12431 57.8062 1.12411 57.8073 1.12421 57.8083C1.16704 58.2349 1.21155 58.6509 1.26171 59.0552C1.26473 59.0796 1.26804 59.1028 1.27109 59.1271C1.31563 59.4817 1.36437 59.8283 1.41484 60.1615C1.4184 60.185 1.42062 60.21 1.42421 60.2334C1.42436 60.2344 1.42406 60.2355 1.42421 60.2365C1.65595 61.7452 1.95125 63.0074 2.31795 63.8584C2.31832 63.8593 2.31758 63.8607 2.31795 63.8615C2.36346 63.967 2.41082 64.066 2.45857 64.1584C2.45899 64.1592 2.45815 64.1607 2.45857 64.1615C2.50632 64.2537 2.55853 64.3393 2.60857 64.4178C2.60903 64.4185 2.60811 64.4202 2.60857 64.4209C2.70909 64.5782 2.81423 64.7073 2.92419 64.8053C2.95233 64.8304 2.97979 64.853 3.00856 64.874C3.09325 64.936 3.18082 64.9804 3.27106 65.0053L4.63976 65.3803C4.63976 65.3803 4.77364 65.4212 5.02101 65.4928C5.39212 65.6 6.01801 65.7795 6.83041 65.9928C7.37198 66.1349 7.99712 66.2935 8.68352 66.4584C9.02666 66.5409 9.38373 66.6239 9.75541 66.7084C9.75643 66.7086 9.75753 66.7082 9.75854 66.7084C10.3151 66.8349 10.9023 66.9623 11.5085 67.0865C11.7109 67.128 11.9113 67.1678 12.1179 67.2084C12.1189 67.2086 12.12 67.2082 12.121 67.2084C12.5333 67.2893 12.955 67.3702 13.3804 67.4459C13.8068 67.5217 14.2398 67.5934 14.6741 67.6615C15.1085 67.7296 15.5431 67.7943 15.9803 67.8521C15.9813 67.8522 15.9824 67.852 15.9834 67.8521C16.6383 67.9387 17.2959 68.014 17.9428 68.0709C18.1588 68.0899 18.3728 68.1058 18.5866 68.1209C19.0142 68.151 19.4371 68.174 19.8522 68.1865C20.2673 68.199 20.6925 68.2059 21.1241 68.2084C22.0027 68.2134 22.9122 68.1966 23.8491 68.1678C25.2133 68.1257 26.6338 68.0543 28.0866 67.9677C30.047 67.851 32.0664 67.7085 34.099 67.5802C35.6014 67.4857 37.1088 67.3995 38.6021 67.3365C38.6417 67.3348 38.6812 67.3319 38.7208 67.3302C39.4602 67.2997 40.1978 67.2751 40.927 67.2584C41.4249 67.247 41.9202 67.2399 42.4114 67.2365C42.657 67.2348 42.9022 67.2328 43.1458 67.2334L55.6268 67.2615L54.7612 70.8553L55.1112 71.0053C55.2859 71.0686 55.6072 71.0982 55.7581 71.0991C55.8429 71.0996 55.9336 71.0916 56.0268 71.0741C56.0579 71.0682 56.0892 71.06 56.1206 71.0522C56.151 71.0446 56.1838 71.0365 56.2143 71.0272C56.2772 71.0079 56.3407 70.985 56.4018 70.9584C56.584 70.8791 56.7552 70.7653 56.8799 70.6272C56.8809 70.6261 56.8821 70.6251 56.883 70.6241C56.9455 70.5543 56.9943 70.4789 57.0299 70.3959L58.2455 67.2647L69.2395 67.2897C69.3142 67.3271 69.3871 67.3642 69.4614 67.3991C69.7593 67.5391 70.0525 67.6588 70.3457 67.7616C70.492 67.8129 70.6375 67.8592 70.7832 67.9022C71.2932 68.053 71.802 68.1574 72.3176 68.2272C72.6123 68.2672 72.9102 68.2966 73.2114 68.3179C73.362 68.3285 73.5148 68.3359 73.6676 68.3429C73.9733 68.3569 74.2815 68.3641 74.5989 68.3679C75.2336 68.3753 75.8968 68.3679 76.5989 68.3679C77.6399 68.3679 78.6311 68.3147 79.577 68.2116C79.9553 68.1704 80.3261 68.1219 80.6895 68.0647C81.4162 67.9505 82.1123 67.8028 82.7801 67.6272C82.947 67.5833 83.1136 67.5374 83.2769 67.4897C83.7668 67.3469 84.2382 67.1872 84.6956 67.0116C84.8481 66.9531 84.9998 66.8956 85.1488 66.8335C85.4466 66.7094 85.737 66.5778 86.0206 66.4397C86.1624 66.3707 86.3042 66.2997 86.4425 66.2272C86.7191 66.0824 86.9892 65.9292 87.2519 65.771C87.3832 65.6919 87.5115 65.6096 87.6394 65.5272C88.2788 65.1152 88.8757 64.6647 89.43 64.1741C89.8728 63.7822 90.2901 63.3662 90.68 62.9272C90.6805 62.9266 90.6795 62.9247 90.68 62.9241C90.777 62.8148 90.8737 62.705 90.9675 62.5929C90.968 62.5923 90.967 62.5904 90.9675 62.5898C91.0612 62.4777 91.155 62.364 91.2456 62.2491C91.2461 62.2485 91.2451 62.2466 91.2456 62.246C91.5181 61.9002 91.7769 61.5441 92.0206 61.1741C92.0211 61.1734 92.0201 61.1717 92.0206 61.171C92.1014 61.0481 92.1835 60.9245 92.2612 60.7991C92.2617 60.7983 92.2607 60.7967 92.2612 60.796C92.4952 60.4182 92.7179 60.0307 92.9237 59.6304C92.9241 59.6296 92.9233 59.6281 92.9237 59.6273C92.992 59.4944 93.0584 59.3595 93.1237 59.2242C93.1241 59.2234 93.1233 59.2219 93.1237 59.221C93.1889 59.0857 93.2553 58.9493 93.3174 58.8117C93.3178 58.8108 93.317 58.8094 93.3174 58.8085C93.4421 58.5323 93.5612 58.2534 93.6737 57.9679C93.6741 57.967 93.6733 57.9657 93.6737 57.9648C93.7297 57.8225 93.7832 57.678 93.8362 57.5335C93.8365 57.5326 93.8359 57.5313 93.8362 57.5304C93.8892 57.3859 93.9424 57.2396 93.9924 57.0929C94.0424 56.9462 94.0923 56.798 94.1393 56.6492C94.1396 56.6483 94.139 56.647 94.1393 56.6461C94.1863 56.4972 94.2327 56.347 94.2768 56.1961C94.2771 56.1951 94.2765 56.1939 94.2768 56.1929C94.3208 56.042 94.3638 55.8897 94.4049 55.7367C94.4052 55.7357 94.4046 55.7345 94.4049 55.7336C94.5287 55.2726 94.6418 54.803 94.7393 54.3242V54.321C94.7716 54.1621 94.8004 54.0006 94.8299 53.8398V53.8367C95.0374 52.7049 95.1761 51.5305 95.2455 50.3148C95.2456 50.3137 95.2455 50.3127 95.2455 50.3116C95.2553 50.1389 95.2634 49.9641 95.2705 49.7898C95.2706 49.7887 95.2705 49.7877 95.2705 49.7866C95.2848 49.437 95.2952 49.0859 95.2987 48.7304C95.2987 48.7294 95.2986 48.7283 95.2987 48.7273C95.3004 48.549 95.2997 48.3695 95.2987 48.1898C95.2987 48.1262 95.2965 48.0627 95.2956 47.9992C95.2966 47.9357 95.2987 47.8722 95.2987 47.8086C95.2997 47.6289 95.3004 47.4494 95.2987 47.2711C95.2986 47.2701 95.2987 47.269 95.2987 47.268C95.2953 46.9124 95.2848 46.5614 95.2705 46.2118C95.2705 46.2108 95.2706 46.2097 95.2705 46.2086C95.2634 46.0343 95.2553 45.8596 95.2455 45.6868C95.2455 45.6858 95.2456 45.6847 95.2455 45.6836C95.1761 44.4679 95.0374 43.2936 94.8299 42.1617V42.1586C94.8004 41.9978 94.7716 41.8363 94.7393 41.6774V41.6743C94.6418 41.1955 94.5287 40.7259 94.4049 40.2649C94.4046 40.2639 94.4052 40.2627 94.4049 40.2617C94.3638 40.1087 94.3208 39.9564 94.2768 39.8055C94.2765 39.8045 94.2771 39.8034 94.2768 39.8024C94.2327 39.6514 94.1863 39.5012 94.1393 39.3524C94.139 39.3515 94.1396 39.3501 94.1393 39.3492C94.0923 39.2004 94.0424 39.0522 93.9924 38.9055C93.9424 38.7588 93.8892 38.6125 93.8362 38.468C93.8359 38.4671 93.8365 38.4658 93.8362 38.4649C93.7832 38.3204 93.7297 38.1759 93.6737 38.0336C93.6733 38.0327 93.6741 38.0314 93.6737 38.0305C93.5612 37.745 93.4421 37.4661 93.3174 37.1899C93.317 37.1891 93.3178 37.1877 93.3174 37.1868C93.2553 37.0491 93.1889 36.9127 93.1237 36.7774C93.1233 36.7766 93.1241 36.7751 93.1237 36.7743C93.0585 36.6389 92.992 36.5041 92.9237 36.3711C92.9233 36.3703 92.9241 36.3688 92.9237 36.368C92.7179 35.9676 92.4952 35.5802 92.2612 35.2024C92.2607 35.2017 92.2617 35.2001 92.2612 35.1993C92.1835 35.0739 92.1014 34.9503 92.0206 34.8274C92.0201 34.8267 92.0211 34.825 92.0206 34.8243C91.7769 34.4543 91.5181 34.0982 91.2456 33.7524C91.2451 33.7518 91.2461 33.7499 91.2456 33.7493C91.155 33.6344 91.0612 33.5208 90.9675 33.4087C90.967 33.4081 90.968 33.4061 90.9675 33.4055C90.8737 33.2935 90.777 33.1836 90.68 33.0743C90.6795 33.0737 90.6805 33.0718 90.68 33.0712C90.2901 32.6323 89.8728 32.2162 89.43 31.8243C88.8757 31.3337 88.2788 30.8832 87.6394 30.4712C87.5115 30.3888 87.3832 30.3066 87.2519 30.2274C86.9892 30.0692 86.7191 29.9161 86.4425 29.7712C86.3042 29.6987 86.1624 29.6277 86.0206 29.5587C85.7369 29.4206 85.4466 29.2891 85.1488 29.1649C84.9998 29.1029 84.8481 29.0453 84.6956 28.9868C84.2382 28.8112 83.7668 28.6516 83.2769 28.5087C83.1136 28.4611 82.947 28.4151 82.7801 28.3712C82.1123 28.1956 81.4163 28.0479 80.6895 27.9337C80.3261 27.8766 79.9553 27.8281 79.577 27.7868C78.6311 27.6835 77.6399 27.6304 76.5989 27.6304C75.8968 27.6304 75.2337 27.623 74.5989 27.6304C74.2815 27.6341 73.9733 27.6414 73.6676 27.6554C73.5148 27.6624 73.3619 27.6698 73.2114 27.6804C72.9102 27.7017 72.6123 27.7311 72.3176 27.7711C71.8021 27.8409 71.2932 27.9453 70.7832 28.0961C70.6375 28.1391 70.492 28.1854 70.3457 28.2367C70.0525 28.3395 69.7593 28.4592 69.4614 28.5992C69.3871 28.634 69.3142 28.6712 69.2395 28.7086L58.2455 28.7336L57.0299 25.6023C56.9943 25.5193 56.9455 25.444 56.883 25.3742C56.882 25.3732 56.8809 25.3722 56.8799 25.3711C56.7552 25.233 56.584 25.1192 56.4018 25.0399C56.3407 25.0133 56.2772 24.9904 56.2143 24.9711C56.1838 24.9618 56.151 24.9537 56.1206 24.9461C56.0892 24.9383 56.0579 24.9301 56.0268 24.9242C55.9336 24.9066 55.8429 24.8987 55.7581 24.8992L55.7581 24.8989Z" fill="black" fill-opacity="0.99608" stroke="#191919" stroke-width="0.0145833"/>
<path d="M55.757 24.9001C55.6061 24.901 55.2849 24.9307 55.1101 24.9938L54.7601 25.1438L55.6257 28.7282L43.1447 28.7564C35.3484 28.7729 26.4927 27.606 19.8517 27.8064C13.2105 28.0067 4.63972 30.6064 4.63972 30.6064L3.27102 30.9845C1.34592 31.5141 0.699219 40.7212 0.699219 47.6625C0.699219 47.7738 0.701884 47.8878 0.702344 48C0.701884 48.1122 0.699219 48.2262 0.699219 48.3375C0.699219 55.2789 1.34595 64.4855 3.27102 65.0155L4.63972 65.3936C4.63972 65.3936 13.2108 67.9932 19.8517 68.1936C26.4929 68.394 35.3487 67.2271 43.1447 67.2436L55.6257 67.2717L54.7601 70.8561L55.1101 71.0061C55.2849 71.0693 55.6061 71.099 55.757 71.0999C55.8418 71.1004 55.9325 71.0924 56.0257 71.0749C56.0568 71.069 56.0881 71.0608 56.1195 71.053C56.1499 71.0455 56.1827 71.0373 56.2132 71.028C56.2761 71.0087 56.3396 70.9858 56.4007 70.9593C56.5829 70.8801 56.7541 70.769 56.8788 70.6311C56.8798 70.6301 56.881 70.6291 56.882 70.628C56.9444 70.5584 56.9932 70.4827 57.0288 70.3999L58.2444 67.2749L69.2384 67.2999C71.6284 68.4941 73.7895 68.3718 76.5977 68.3718C89.9227 68.3718 95.3607 59.7132 95.2977 48.2338C95.2977 48.1558 95.2958 48.0772 95.2946 47.9994C95.2958 47.9216 95.2977 47.8431 95.2977 47.765C95.3606 36.286 89.9228 27.627 76.5977 27.627C73.7895 27.627 71.6284 27.5047 69.2384 28.6989L58.2444 28.7239L57.0288 25.5989C56.9932 25.5161 56.9444 25.4405 56.882 25.3708C56.881 25.3698 56.8798 25.3688 56.8788 25.3677C56.7541 25.2298 56.5829 25.1188 56.4007 25.0396C56.3396 25.013 56.2761 24.9901 56.2132 24.9708C56.1827 24.9615 56.1499 24.9534 56.1195 24.9458C56.0881 24.9381 56.0568 24.9298 56.0257 24.9239C55.9325 24.9064 55.8418 24.8984 55.757 24.8989V24.9001Z" fill="white" fill-opacity="0.99608"/>
<path opacity="0.9" d="M34.7399 61.055C31.4035 61.055 28.2092 61.235 25.2588 61.5612C27.8248 66.4326 35.0573 64.5877 45.8148 64.7143C50.7834 64.7728 54.7691 64.9023 57.9678 64.9518C53.2518 62.6184 44.6148 61.0549 34.7398 61.0549L34.7399 61.055Z" fill="#262626" fill-opacity="0.99608"/>
<path opacity="0.5" d="M34.7399 61.0551C34.4193 61.0551 34.1016 61.058 33.7837 61.0613C33.8655 62.6784 34.4265 64.087 35.2431 64.9457C35.7102 64.9382 36.1926 64.9261 36.6868 64.9114C35.8302 64.0921 35.2275 62.6886 35.1149 61.0552C34.9898 61.0547 34.8655 61.0551 34.7399 61.0551Z" fill="black" fill-opacity="0.99608"/>
<path d="M93.6083 58.281L93.0989 58.3404C90.9444 58.5917 89.3301 60.9383 89.1708 63.7935L89.1333 64.506L89.6583 64.0216C91.2472 62.5536 92.4886 60.7709 93.3989 58.7466L93.6079 58.2816L93.6083 58.281Z" fill="#212121" stroke="#191919" stroke-width="0.00520833"/>
<path opacity="0.5" d="M73.0531 59.3811C73.0531 59.3811 81.0208 57.1215 83.5911 56.1829C86.275 55.2027 93.477 52.2683 93.477 52.2683C93.477 52.2683 92.6029 56.5153 90.4287 58.0601C82.7057 63.5471 67.1597 63.4451 67.1597 63.4451" stroke="#292929" stroke-width="0.00625" stroke-linecap="round" stroke-linejoin="round"/>
<path d="M81.7031 57.3152L81.2594 57.5496C81.3583 57.6653 81.4389 57.7924 81.4969 57.934C81.9767 59.1057 80.4233 60.8576 78.8094 61.5121C78.7577 61.533 78.6281 61.5961 78.4688 61.6777L79.8313 61.2902C81.5619 60.4444 82.5783 58.982 82.1313 57.8902C82.0396 57.6665 81.8937 57.4736 81.7031 57.3152Z" fill="url(#paint0_linear_321_68)"/>
<path d="M82.561 56.8692L82.1173 57.1035C82.2162 57.2192 82.2968 57.3464 82.3548 57.4879C82.8346 58.6596 81.2812 60.4115 79.6673 61.066C79.6156 61.087 79.486 61.1501 79.3267 61.2316L80.6892 60.8441C82.4198 59.9984 83.4362 58.5359 82.9892 57.4441C82.8975 57.2204 82.7516 57.0275 82.561 56.8692Z" fill="url(#paint1_linear_321_68)"/>
<path d="M83.1802 56.7271L82.7364 56.9615C82.8353 57.0771 82.916 57.2043 82.9739 57.3458C83.4537 58.5175 81.9003 60.2694 80.2864 60.9239C80.2347 60.9449 80.1051 61.008 79.9458 61.0896L81.3083 60.7021C83.0389 59.8563 84.0553 58.3939 83.6083 57.3021C83.5167 57.0783 83.3708 56.8855 83.1802 56.7271Z" fill="url(#paint2_linear_321_68)"/>
<path d="M84.871 56.3L84.2523 56.4844C84.3483 56.6557 84.4178 56.8377 84.4554 57.0313C84.7674 58.6347 82.3592 60.4597 80.1523 60.8813C79.8128 60.9462 77.2639 61.7389 76.9365 61.7617V62.1742L81.0804 60.9594C83.7089 60.4098 85.5753 58.7146 85.2679 57.1344C85.2084 56.8283 85.0723 56.5485 84.871 56.3Z" fill="url(#paint3_linear_321_68)"/>
<path d="M84.871 56.3L84.2523 56.4844C84.3483 56.6557 84.4178 56.8377 84.4554 57.0313C84.7674 58.6347 82.3592 60.4597 80.1523 60.8813C79.8128 60.9462 77.2639 61.7389 76.9365 61.7617V62.1742L81.0804 60.9594C83.7089 60.4098 85.5753 58.7146 85.2679 57.1344C85.2084 56.8283 85.0723 56.5485 84.871 56.3Z" fill="url(#paint4_linear_321_68)"/>
<path d="M80.4181 57.7771L80.0217 57.9865C80.1101 58.0898 80.1821 58.2035 80.2339 58.3299C80.6625 59.3766 79.2748 60.9416 77.8331 61.5263C77.7869 61.545 77.6711 61.6014 77.5288 61.6742L78.7459 61.3281C80.2919 60.5725 81.1999 59.2661 80.8005 58.2908C80.7187 58.0909 80.5884 57.9186 80.4181 57.7771Z" fill="url(#paint5_linear_321_68)"/>
<path d="M79.0383 58.1341L78.6418 58.3434C78.7302 58.4468 78.8022 58.5604 78.854 58.6868C79.2826 59.7335 77.8949 61.2985 76.4532 61.8832C76.407 61.9019 76.2913 61.9583 76.1489 62.0312L77.366 61.685C78.912 60.9295 79.82 59.623 79.4206 58.6477C79.3388 58.4478 79.2085 58.2756 79.0383 58.1341Z" fill="url(#paint6_linear_321_68)"/>
<path d="M18.0328 60.103C18.8621 59.9007 19.5814 59.9551 20.0125 60.6817L19.7632 62.4714C19.0757 63.0887 18.3882 62.9665 17.7007 62.487L18.0328 60.103Z" fill="url(#paint7_linear_321_68)"/>
<path d="M20.0602 60.43C20.8753 60.309 21.5769 60.3727 21.9445 60.9808L21.7072 62.6842C21.0588 62.9817 20.4089 63.2052 19.7441 62.699L20.0602 60.43Z" fill="url(#paint8_linear_321_68)"/>
<path opacity="0.9" d="M34.7402 60.806C31.3948 60.806 28.191 60.9849 25.2309 61.3122L24.8652 61.3529L25.0371 61.6779C25.7042 62.9443 26.6933 63.7892 27.9433 64.3217C29.1934 64.8541 30.7005 65.0829 32.4526 65.1654C35.9568 65.3304 40.448 64.9023 45.8116 64.9654C50.7775 65.0238 54.7624 65.1533 57.9646 65.2029L58.0771 64.7279C53.2931 62.3599 44.6431 60.8059 34.7411 60.8059L34.7402 60.806ZM34.7402 61.306C43.8571 61.306 51.9152 62.6539 56.7492 64.6779C53.754 64.6196 50.228 64.5173 45.8182 64.4654C40.4245 64.4019 35.9206 64.8306 32.4782 64.6685C30.7568 64.5875 29.3015 64.358 28.1376 63.8623C27.0923 63.417 26.2891 62.7468 25.6876 61.7716C28.5183 61.4733 31.5611 61.306 34.7406 61.306L34.7402 61.306Z" fill="#191919"/>
<path opacity="0.9" d="M20.7561 36.269L12.9812 37.5159C10.2662 37.9513 8.08655 42.3932 7.88135 47.9999C8.08658 53.607 10.2662 58.0489 12.9812 58.4839L20.7561 59.7308C22.0857 59.7308 23.1561 58.6604 23.1561 57.3308V38.6688C23.1561 37.3392 22.0857 36.2688 20.7561 36.2688V36.269Z" fill="#262626" fill-opacity="0.99608" stroke="#191919" stroke-width="0.00520833"/>
<path opacity="0.9" d="M63.9021 32.847C63.6051 32.847 63.3127 32.8802 63.0239 32.9439C63.0229 32.9429 63.0219 32.9418 63.0208 32.9408L56.6365 34.172C54.8637 34.8324 53.4365 35.5992 53.4365 37.372V58.628C53.4365 60.4008 54.8637 61.1675 56.6365 61.828L63.0208 63.0592C63.0219 63.0581 63.0229 63.0571 63.0239 63.056C63.3127 63.1197 63.6051 63.1529 63.9021 63.1529C68.4416 63.1529 72.1219 57.4166 72.1333 47.9999C72.1219 38.583 68.4417 32.847 63.9021 32.847Z" fill="#262626" fill-opacity="0.99608" stroke="#191919" stroke-width="0.00520833"/>
<path opacity="0.9" d="M34.7399 34.9461C31.4035 34.9461 28.2092 34.7661 25.2588 34.4399C27.8248 29.5685 35.0573 31.4134 45.8148 31.2868C50.7834 31.2283 54.7691 31.0988 57.9678 31.0493C53.2518 33.3827 44.6148 34.9462 34.7398 34.9462L34.7399 34.9461Z" fill="#262626" fill-opacity="0.99608"/>
<path opacity="0.5" d="M34.7399 34.9461C34.4193 34.9461 34.1016 34.9431 33.7837 34.9398C33.8655 33.3227 34.4265 31.9141 35.2431 31.0554C35.7102 31.063 36.1926 31.0751 36.6868 31.0898C35.8302 31.909 35.2275 33.3126 35.1149 34.946C34.9898 34.9465 34.8655 34.9461 34.7399 34.9461Z" fill="black" fill-opacity="0.99608"/>
<path d="M93.6083 37.7201L93.0989 37.6607C90.9444 37.4094 89.3301 35.0628 89.1708 32.2076L89.1333 31.4951L89.6583 31.9795C91.2472 33.4475 92.4886 35.2302 93.3989 37.2545L93.6083 37.7201Z" fill="#212121" stroke="#191919" stroke-width="0.00520833"/>
<path opacity="0.5" d="M73.0531 36.6201C73.0531 36.6201 81.0208 38.8797 83.5911 39.8183C86.275 40.7984 93.477 43.7329 93.477 43.7329C93.477 43.7329 92.6029 39.4859 90.4287 37.9411C82.7057 32.4541 67.1597 32.5551 67.1597 32.5551" stroke="#292929" stroke-width="0.00625" stroke-linecap="round" stroke-linejoin="round"/>
<path d="M81.7031 38.6862L81.2594 38.4518C81.3583 38.3362 81.4389 38.209 81.4969 38.0675C81.9767 36.8958 80.4233 35.1439 78.8094 34.4894C78.7577 34.4684 78.6281 34.4053 78.4688 34.3237L79.8313 34.7112C81.5619 35.557 82.5783 37.0194 82.1313 38.1112C82.0396 38.335 81.8937 38.5278 81.7031 38.6862Z" fill="url(#paint9_linear_321_68)"/>
<path d="M82.561 39.132L82.1173 38.8976C82.2162 38.782 82.2968 38.6548 82.3548 38.5133C82.8346 37.3416 81.2812 35.5897 79.6673 34.9352C79.6156 34.9142 79.486 34.8511 79.3267 34.7695L80.6892 35.157C82.4198 36.0028 83.4362 37.4652 82.9892 38.557C82.8975 38.7808 82.7516 38.9736 82.561 39.132Z" fill="url(#paint10_linear_321_68)"/>
<path d="M83.1802 39.2731L82.7364 39.0387C82.8353 38.9231 82.916 38.7959 82.9739 38.6544C83.4537 37.4827 81.9003 35.7308 80.2864 35.0763C80.2347 35.0553 80.1051 34.9922 79.9458 34.9106L81.3083 35.2981C83.0389 36.1439 84.0553 37.6063 83.6083 38.6981C83.5167 38.9219 83.3708 39.1147 83.1802 39.2731Z" fill="url(#paint11_linear_321_68)"/>
<path d="M84.871 39.7011L84.2523 39.5167C84.3483 39.3454 84.4178 39.1635 84.4554 38.9698C84.7674 37.3664 82.3592 35.5414 80.1523 35.1198C79.8128 35.055 77.2639 34.2622 76.9365 34.2394V33.8269L81.0804 35.0417C83.7089 35.5913 85.5753 37.2865 85.2679 38.8667C85.2084 39.1729 85.0723 39.4527 84.871 39.7011Z" fill="url(#paint12_linear_321_68)"/>
<path d="M84.871 39.7011L84.2523 39.5167C84.3483 39.3454 84.4178 39.1635 84.4554 38.9698C84.7674 37.3664 82.3592 35.5414 80.1523 35.1198C79.8128 35.055 77.2639 34.2622 76.9365 34.2394V33.8269L81.0804 35.0417C83.7089 35.5913 85.5753 37.2865 85.2679 38.8667C85.2084 39.1729 85.0723 39.4527 84.871 39.7011Z" fill="url(#paint13_linear_321_68)"/>
<path d="M80.4181 38.224L80.0217 38.0146C80.1101 37.9113 80.1821 37.7977 80.2339 37.6713C80.6625 36.6246 79.2748 35.0596 77.8331 34.4749C77.7869 34.4561 77.6711 34.3998 77.5288 34.3269L78.7459 34.6731C80.2919 35.4286 81.1999 36.7351 80.8005 37.7104C80.7187 37.9102 80.5884 38.0825 80.4181 38.224Z" fill="url(#paint14_linear_321_68)"/>
<path d="M79.0383 37.8671L78.6418 37.6577C78.7302 37.5544 78.8022 37.4407 78.854 37.3143C79.2826 36.2676 77.8949 34.7026 76.4532 34.1179C76.407 34.0992 76.2913 34.0428 76.1489 33.97L77.366 34.3161C78.912 35.0717 79.82 36.3781 79.4206 37.3534C79.3388 37.5533 79.2085 37.7256 79.0383 37.8671Z" fill="url(#paint15_linear_321_68)"/>
<path d="M18.0328 35.8971C18.8621 36.0995 19.5814 36.045 20.0125 35.3184L19.7632 33.5287C19.0757 32.9114 18.3882 33.0336 17.7007 33.5132L18.0328 35.8971Z" fill="url(#paint16_linear_321_68)"/>
<path d="M20.0602 35.5711C20.8753 35.6921 21.5769 35.6283 21.9445 35.0203L21.7072 33.3169C21.0588 33.0194 20.4089 32.7959 19.7441 33.3021L20.0602 35.5711Z" fill="url(#paint17_linear_321_68)"/>
<path opacity="0.9" d="M34.7402 35.1951C31.3948 35.1951 28.191 35.0162 25.2309 34.6889L24.8652 34.6483L25.0371 34.3233C25.7042 33.0569 26.6933 32.212 27.9433 31.6795C29.1934 31.147 30.7005 30.9182 32.4526 30.8357C35.9568 30.6707 40.448 31.0988 45.8116 31.0357C50.7775 30.9773 54.7624 30.8478 57.9646 30.7982L58.0771 31.2732C53.2922 33.6407 44.6412 35.1951 34.7402 35.1951ZM34.7402 34.6951C43.8571 34.6951 51.9152 33.3472 56.7492 31.3232C53.754 31.3815 50.228 31.4838 45.8182 31.5357C40.4245 31.5992 35.9206 31.1705 32.4782 31.3326C30.7568 31.4137 29.3015 31.6431 28.1376 32.1389C27.0923 32.5841 26.2891 33.2543 25.6876 34.2295C28.5183 34.5278 31.5611 34.6951 34.7406 34.6951L34.7402 34.6951Z" fill="#191919"/>
<defs>
<linearGradient id="paint0_linear_321_68" x1="82.67" y1="59.496" x2="80.353" y2="58.734" gradientUnits="userSpaceOnUse">
<stop stop-color="#1A1A1A"/>
<stop offset="1" stop-opacity="0"/>
</linearGradient>
<linearGradient id="paint1_linear_321_68" x1="85.6398" y1="58.1582" x2="84.4638" y2="58.1642" gradientUnits="userSpaceOnUse">
<stop stop-color="#1A1A1A"/>
<stop offset="1" stop-opacity="0"/>
</linearGradient>
<linearGradient id="paint2_linear_321_68" x1="85.4587" y1="58.9301" x2="79.0507" y2="58.3711" gradientUnits="userSpaceOnUse">
<stop stop-color="#1A1A1A"/>
<stop offset="1" stop-opacity="0"/>
</linearGradient>
<linearGradient id="paint3_linear_321_68" x1="86.5718" y1="59.5621" x2="85.2258" y2="58.859" gradientUnits="userSpaceOnUse">
<stop stop-color="#1A1A1A"/>
<stop offset="1" stop-opacity="0"/>
</linearGradient>
<linearGradient id="paint4_linear_321_68" x1="84.9208" y1="60.527" x2="80.4488" y2="55.43" gradientUnits="userSpaceOnUse">
<stop stop-color="#1A1A1A"/>
<stop offset="1" stop-opacity="0"/>
</linearGradient>
<linearGradient id="paint5_linear_321_68" x1="83.4396" y1="58.8876" x2="76.0599" y2="58.9992" gradientUnits="userSpaceOnUse">
<stop stop-color="#1A1A1A"/>
<stop offset="1" stop-opacity="0"/>
</linearGradient>
<linearGradient id="paint6_linear_321_68" x1="81.3444" y1="60.062" x2="75.2912" y2="59.7047" gradientUnits="userSpaceOnUse">
<stop stop-color="#1A1A1A"/>
<stop offset="1" stop-opacity="0"/>
</linearGradient>
<linearGradient id="paint7_linear_321_68" x1="20.0125" y1="61.7905" x2="17.7" y2="60.9171" gradientUnits="userSpaceOnUse">
<stop stop-color="#1A1A1A"/>
<stop offset="1" stop-opacity="0"/>
</linearGradient>
<linearGradient id="paint8_linear_321_68" x1="21.9443" y1="62.0368" x2="19.7443" y2="61.6889" gradientUnits="userSpaceOnUse">
<stop stop-color="#1A1A1A"/>
<stop offset="1" stop-opacity="0"/>
</linearGradient>
<linearGradient id="paint9_linear_321_68" x1="82.67" y1="36.5012" x2="80.353" y2="37.2632" gradientUnits="userSpaceOnUse">
<stop stop-color="#1A1A1A"/>
<stop offset="1" stop-opacity="0"/>
</linearGradient>
<linearGradient id="paint10_linear_321_68" x1="85.6398" y1="37.845" x2="84.4638" y2="37.839" gradientUnits="userSpaceOnUse">
<stop stop-color="#1A1A1A"/>
<stop offset="1" stop-opacity="0"/>
</linearGradient>
<linearGradient id="paint11_linear_321_68" x1="85.4587" y1="37.0711" x2="79.0507" y2="37.6301" gradientUnits="userSpaceOnUse">
<stop stop-color="#1A1A1A"/>
<stop offset="1" stop-opacity="0"/>
</linearGradient>
<linearGradient id="paint12_linear_321_68" x1="86.5718" y1="36.4411" x2="85.2258" y2="37.1441" gradientUnits="userSpaceOnUse">
<stop stop-color="#1A1A1A"/>
<stop offset="1" stop-opacity="0"/>
</linearGradient>
<linearGradient id="paint13_linear_321_68" x1="84.9208" y1="35.4761" x2="80.4488" y2="40.5731" gradientUnits="userSpaceOnUse">
<stop stop-color="#1A1A1A"/>
<stop offset="1" stop-opacity="0"/>
</linearGradient>
<linearGradient id="paint14_linear_321_68" x1="83.4396" y1="37.1115" x2="76.0599" y2="36.9999" gradientUnits="userSpaceOnUse">
<stop stop-color="#1A1A1A"/>
<stop offset="1" stop-opacity="0"/>
</linearGradient>
<linearGradient id="paint15_linear_321_68" x1="81.3444" y1="35.9351" x2="75.2912" y2="36.2925" gradientUnits="userSpaceOnUse">
<stop stop-color="#1A1A1A"/>
<stop offset="1" stop-opacity="0"/>
</linearGradient>
<linearGradient id="paint16_linear_321_68" x1="20.0125" y1="34.2131" x2="17.7" y2="35.0866" gradientUnits="userSpaceOnUse">
<stop stop-color="#1A1A1A"/>
<stop offset="1" stop-opacity="0"/>
</linearGradient>
<linearGradient id="paint17_linear_321_68" x1="21.9443" y1="33.965" x2="19.7443" y2="34.3129" gradientUnits="userSpaceOnUse">
<stop stop-color="#1A1A1A"/>
<stop offset="1" stop-opacity="0"/>
</linearGradient>
</defs>
</svg>
